<svg width="64" height="64" viewBox="0 0 64 64" fill="none" xmlns="http://www.w3.org/2000/svg">
  <defs>
    <linearGradient id="fp-bolt" x1="0" y1="0" x2="64" y2="64" gradientUnits="userSpaceOnUse">
      <stop stop-color="#7c3aed"/>
      <stop offset="1" stop-color="#a855f7"/>
    </linearGradient>
  </defs>
  <rect width="64" height="64" rx="16" fill="#0d0a18"/>
  <!-- recibo -->
  <path d="M20 12h24a2 2 0 0 1 2 2v38l-5-3-5 3-5-3-5 3-5-3-5 3V14a2 2 0 0 1 2-2z" fill="#ffffff" fill-opacity="0.95"/>
  <rect x="24" y="20" width="16" height="2.5" rx="1.25" fill="#c4b1f4"/>
  <rect x="24" y="26" width="12" height="2.5" rx="1.25" fill="#dcd2f7"/>
  <!-- rayo -->
  <path d="M37 28l-12 14h7l-2 10 12-15h-7l2-9z" fill="url(#fp-bolt)" stroke="#0d0a18" stroke-width="1.5" stroke-linejoin="round"/>
</svg>
